#!OML:ASF F:\VICON\USERDATA\INSTALL\rory3\rory3.ASF
:FULLY-SPECIFIED
:DEGREES
443
root 0.270073 17.4562 0.318604 203.582 27.0808 -153.323
lowerback -0.279401 -1.85264 11.4888
upperback -7.73557 -0.277711 8.0922
thorax -8.2911 -0.0646126 2.20327
lowerneck -3.64646 -22.6011 -14.1888
upperneck 28.8638 -31.4817 6.94592
head 13.796 -14.3476 -0.0245728
rclavicle -3.22031e-014 3.33958e-014
rhumerus 347.157 -14.6755 -373.533
rradius 26.1533
rwrist 16.1588
rhand -8.94368 16.7572
rfingers 7.12502
rthumb 17.0007 -12.5188
lclavicle -3.22031e-014 3.33958e-014
lhumerus 21.1938 -13.5039 13.5958
lradius 78.4283
lwrist -24.1126
lhand -43.0735 9.59686
lfingers 7.12502
lthumb -15.9291 38.9618
rfemur -51.0332 16.9669 319.807
rtibia 34.9823
rfoot 129.55 150.609
rtoes 61.132
lfemur -17.6097 -8.84362 -1.25953
ltibia 37.0581
lfoot -201.323 -155.186
ltoes -31.0489
444
root 0.282786 17.6845 0.223455 203.534 29.6944 -153.773
lowerback -0.759618 -2.05215 11.5877
upperback -8.34112 -0.391351 8.56264
thorax -8.71621 -0.0765247 2.68683
lowerneck -3.10777 -22.1061 -15.1822
upperneck 29.9954 -30.2482 5.3986
head 13.9059 -14.0384 -0.16734
rclavicle -3.95581e-014 2.26615e-014
rhumerus 347.57 -12.8647 -370.125
rradius 23.7249
rwrist 17.219
rhand -5.97094 11.4353
rfingers 7.12502
rthumb 19.8603 -17.57
lclavicle -3.95581e-014 2.26615e-014
lhumerus 19.9892 -15.4434 10.2317
lradius 75.3043
lwrist -24.6302
lhand -44.2363 8.4051
lfingers 7.12502
lthumb -17.0487 37.677
rfemur -49.6893 16.5097 319.459
rtibia 34.5649
rfoot 131.55 149.367
rtoes 60.8786
lfemur -14.9674 -8.53461 -2.93415
ltibia 34.0894
lfoot -198.744 -154.029
ltoes -29.3368
445
root 0.320285 17.9254 0.13848 203.429 31.9808 -154.724
lowerback -2.46067 -2.10101 12.0896
upperback -8.40354 -0.777006 8.28715
thorax -7.82338 -0.295021 2.09159
lowerneck -3.34076 -21.8089 -15.644
upperneck 30.9981 -29.6031 4.76163
head 14.2786 -13.8016 -0.283329
rclavicle -6.55741e-014 -5.14852e-014
rhumerus 347.718 -16.865 -367.194
rradius 20.6827
rwrist 22.3202
rhand -3.14907 6.12196
rfingers 7.12502
rthumb 22.5709 -22.5786
lclavicle -6.55741e-014 -5.14852e-014
lhumerus 20.4914 -16.5581 6.17107
lradius 72.534
lwrist -25.9442
lhand -44.0418 9.47276
lfingers 7.12502
lthumb -16.8615 38.7607
rfemur -48.1042 16.1106 318.606
rtibia 34.1772
rfoot 131.486 150.088
rtoes 60.9313
lfemur -13.0193 -8.42763 -4.62616
ltibia 31.3193
lfoot -196.25 -153.114
ltoes -24.5971
446
root 0.371981 18.1826 0.0615592 203.41 34.0765 -155.9
lowerback -3.97764 -1.88972 12.3804
upperback -8.65203 -0.781239 7.78869
thorax -7.23248 -0.331942 1.36642
lowerneck -4.27222 -21.9256 -15.2757
upperneck 32.3285 -29.4836 3.6347
head 14.7493 -13.7224 -0.846758
rclavicle -3.16565e-014 -6.54002e-014
rhumerus 346.455 -22.2783 -363.15
rradius 18.4399
rwrist 28.8277
rhand 0.0103525 5.77216
rfingers 7.12502
rthumb 25.6003 -22.5272
lclavicle -3.16565e-014 -6.54002e-014
lhumerus 21.4607 -18.5192 1.71387
lradius 68.3369
lwrist -27.0414
lhand -44.7085 10.787
lfingers 7.12502
lthumb -17.5032 40.019
rfemur -46.5384 16.1343 317.277
rtibia 33.8189
rfoot 129.296 152.117
rtoes 61.1564
lfemur -11.7065 -8.63812 -6.15098
ltibia 28.7954
lfoot -194.092 -152.422
ltoes -17.3193
447
root 0.436017 18.4562 -0.0105066 203.534 36.1124 -157.051
lowerback -6.03499 -1.66114 12.9826
upperback -8.99978 -0.829658 7.19935
thorax -6.47922 -0.392792 0.377694
lowerneck -3.88453 -21.7703 -16.0261
upperneck 33.1663 -29.1617 3.40984
head 15.1291 -13.6371 -0.800359
rclavicle 1.07841e-014 4.23411e-014
rhumerus 344.809 -27.9094 -358.745
rradius 16.9246
rwrist 36.3431
rhand 2.95291 5.52999
rfingers 7.12502
rthumb 28.4156 -22.3328
lclavicle 1.07841e-014 4.23411e-014
lhumerus 22.5846 -20.5104 -2.2118
lradius 64.1651
lwrist -28.8449
lhand -45.38 12.747
lfingers 7.12502
lthumb -18.1493 41.9203
rfemur -45.1415 16.7262 315.678
rtibia 33.4937
rfoot 125.437 156.094
rtoes 61.5055
lfemur -10.938 -8.93113 -7.31686
ltibia 26.6792
lfoot -193.567 -151.618
ltoes -6.04539
448
root 0.518716 18.7354 -0.0683556 203.386 38.0969 -158.452
lowerback -7.99578 -1.25601 13.2533
upperback -9.56069 -0.569325 6.55691
thorax -5.99072 -0.282469 -0.46886
lowerneck -2.36082 -21.6938 -17.5828
upperneck 33.6334 -29.1045 3.67339
head 15.4063 -13.7475 -0.426192
rclavicle 3.15074e-014 -5.52621e-014
rhumerus 342.459 -30.5279 -353.688
rradius 16.1094
rwrist 41.8238
rhand 5.321 4.64568
rfingers 7.12502
rthumb 30.6761 -22.817
lclavicle 3.15074e-014 -5.52621e-014
lhumerus 24.292 -22.9431 -5.59338
lradius 59.8204
lwrist -30.7966
lhand -46.9155 16.8356
lfingers 7.12502
lthumb -19.6261 45.8649
rfemur -43.6976 17.4204 314.022
rtibia 33.2127
rfoot 121.628 160.932
rtoes 61.9505
lfemur -10.236 -8.97369 -8.26912
ltibia 25.0878
lfoot -201.733 -155.392
ltoes 26.9229
449
root 0.614817 19.009 -0.0956784 202.837 40.1039 -160.384
lowerback -10.3409 -1.7667 13.0315
upperback -9.29701 -1.80821 5.97473
thorax -4.50645 -0.869778 -1.06988
lowerneck -3.78091 -21.0383 -16.8201
upperneck 34.3991 -27.9824 3.17741
head 15.676 -13.178 -0.612873
rclavicle 1.98785e-016 1.74931e-014
rhumerus 342.595 -37.543 -351.469
rradius 15.1756
rwrist 50.3668
rhand 7.62171 3.62799
rfingers 7.12502
rthumb 32.8673 -23.4001
lclavicle 1.98785e-016 1.74931e-014
lhumerus 23.2223 -24.2141 -9.39116
lradius 55.5595
lwrist -32.8195
lhand -43.1672 14.2743
lfingers 7.12502
lthumb -16.0194 43.632
rfemur -42.2911 17.9017 312.087
rtibia 33.0689
rfoot 118.451 165.84
rtoes 62.4339
lfemur -9.42923 -7.73453 -9.3448
ltibia 24.0853
lfoot -206.332 -161.751
ltoes 43.0506
